<?xml version="1.0" standalone="no"?>
<!DOCTYPE svg PUBLIC "-//W3C//DTD SVG 20010904//EN"
 "http://www.w3.org/TR/2001/REC-SVG-20010904/DTD/svg10.dtd">
<svg version="1.0" xmlns="http://www.w3.org/2000/svg"
 width="700.000000pt" height="700.000000pt" viewBox="0 0 700.000000 700.000000"
 preserveAspectRatio="xMidYMid meet">
<metadata>
Created by potrace 1.14, written by Peter Selinger 2001-2017
</metadata>
<g transform="translate(0.000000,700.000000) scale(0.100000,-0.100000)"
fill="#000000" stroke="none">
<path d="M253 6986 c-102 -32 -176 -97 -222 -196 l-26 -55 0 -3235 0 -3235 26
-56 c37 -79 90 -133 167 -171 l67 -33 3235 0 3235 0 67 33 c77 38 130 92 167
171 l26 56 0 3236 0 3235 -34 68 c-40 77 -91 126 -171 165 l-55 26 -3220 2
c-2641 1 -3228 -1 -3262 -11z"/>
</g>
</svg>
